<svg width="130" height="19" viewBox="0 0 130 19" fill="none" xmlns="http://www.w3.org/2000/svg">
<path d="M2.21875 17.7656V2.75H5.96875V17.7656H2.21875ZM4.20312 18V15.9688H12.7969L13.1719 18H4.20312ZM13.1719 18L10.125 16.7031L12.2031 13.0781H13.875C13.8958 13.7865 13.8438 14.5677 13.7188 15.4219C13.6042 16.276 13.4219 17.1354 13.1719 18ZM3.95312 11.125V9H11.0156L10.8594 11.125H3.95312ZM3.29688 4.5625V2.53125H13L12.7031 4.5625H3.29688ZM11.6406 7.17188L10.0781 3.89062L13 2.53125C13.1667 3.28125 13.276 4.05729 13.3281 4.85938C13.3906 5.66146 13.3958 6.43229 13.3438 7.17188H11.6406ZM0.75 18L0.859375 16.625C1.35938 16.4062 2.01042 16.2031 2.8125 16.0156L2.21875 17.6094V15.1562H5.96875V17.6094L5.42188 16.1406L7.5 16.5938L7.39062 18H0.75ZM7.4375 2.53125L7.32812 3.90625C6.82812 4.125 6.17708 4.32812 5.375 4.51562L5.96875 2.92188V5.375H2.21875V2.92188L2.76562 4.39062L0.6875 3.9375L0.796875 2.53125H7.4375ZM21.7188 16.3125C21.7188 15.4479 21.7292 14.5677 21.75 13.6719C21.7708 12.7656 21.7812 11.9167 21.7812 11.125V9.78125C21.7812 8.30208 21.1354 7.5625 19.8438 7.5625C19.0208 7.5625 18.2083 7.86458 17.4062 8.46875L15.8125 9.89062C15.7812 8.81771 15.8438 7.84375 16 6.96875C17.5521 6.10417 19.2708 5.67188 21.1562 5.67188C23.9688 5.67188 25.375 6.83854 25.375 9.17188C25.375 9.46354 25.3698 9.92188 25.3594 10.5469C25.349 11.1615 25.3385 11.8281 25.3281 12.5469C25.3177 13.2552 25.3073 13.9219 25.2969 14.5469C25.2865 15.1615 25.2812 15.625 25.2812 15.9375L21.7188 16.3125ZM15.8125 9.89062L15.9688 8.07812L19.0156 7.20312L17.5781 9.89062H15.8125ZM18.5938 18.2344C17.5104 18.2344 16.6458 17.9323 16 17.3281C15.3542 16.7135 15.0312 15.8958 15.0312 14.875C15.0312 12.7292 16.6354 11.3229 19.8438 10.6562L22.6875 10.0625L22.9688 11.7188L20.7344 12C20.0365 12.0833 19.526 12.2917 19.2031 12.625C18.8906 12.9479 18.7344 13.4375 18.7344 14.0938C18.7344 15.375 19.2344 16.0156 20.2344 16.0156C20.9427 16.0156 21.8385 15.625 22.9219 14.8438L23.2031 15.7188C21.8802 17.3958 20.3438 18.2344 18.5938 18.2344ZM22.6562 18.0781L21.9062 15.8281L25.2812 15.0312V17.0469L24.7188 16.0156L26.5625 16.5625L26.4531 17.875C25.5156 18.0312 24.25 18.099 22.6562 18.0781ZM29.25 17.9062V7.90625L32.875 8.70312V17.9062H29.25ZM27.9375 18L28.0469 16.6875C28.3385 16.5417 28.6302 16.4219 28.9219 16.3281C29.224 16.2344 29.526 16.151 29.8281 16.0781L29.25 17.6094V15.1562H32.875V17.6094L32.3594 16.25L35 16.6562L34.8906 18H27.9375ZM31.8125 10.4062L31.5 9.78125C32.0833 8.36458 32.7083 7.34375 33.375 6.71875C34.0521 6.09375 34.8646 5.78125 35.8125 5.78125C35.9583 5.78125 36.0938 5.79167 36.2188 5.8125C36.3438 5.82292 36.4531 5.84375 36.5469 5.875L36.3125 8.71875C36.0417 8.66667 35.7708 8.63021 35.5 8.60938C35.2292 8.58854 35.0052 8.57812 34.8281 8.57812C34.224 8.57812 33.6875 8.72396 33.2188 9.01562C32.75 9.29688 32.2812 9.76042 31.8125 10.4062ZM29.25 9.95312V7.95312L29.875 9.01562L27.7188 7.82812L27.8125 6.76562C28.375 6.51562 29.0052 6.30729 29.7031 6.14062C30.4115 5.97396 31.1354 5.85938 31.875 5.79688L32.75 8.59375L29.25 9.95312ZM46.3438 17.9062V10.0938C46.3438 8.66667 45.7292 7.95312 44.5 7.95312C43.5417 7.95312 42.5104 8.39062 41.4062 9.26562L41.0938 8.17188C41.7396 7.33854 42.5104 6.71354 43.4062 6.29688C44.3125 5.88021 45.2604 5.67188 46.25 5.67188C47.4583 5.67188 48.3802 5.97396 49.0156 6.57812C49.651 7.17188 49.9688 8.02604 49.9688 9.14062V17.9062H46.3438ZM38.9688 17.9062V7.375L42.5938 8.03125V17.9062H38.9688ZM37.6562 18L37.7656 16.6875C38.0573 16.5417 38.349 16.4219 38.6406 16.3281C38.9427 16.2344 39.2448 16.151 39.5469 16.0781L38.9688 17.6094V15.1562H42.5938V17.6094L42.0781 16.2188L44.0938 16.6562L43.9844 18H37.6562ZM45.1875 18L45.2969 16.625C45.5156 16.5104 45.7656 16.4115 46.0469 16.3281C46.3281 16.2344 46.6198 16.1562 46.9219 16.0938L46.3438 17.6094V15.1562H49.9688V17.6094L49.4375 16.2031L51.3438 16.6562L51.2344 18H45.1875ZM38.9688 9.95312V7.95312L39.5938 9.01562L37.4375 7.82812L37.5312 6.76562C38.0938 6.51562 38.724 6.30729 39.4219 6.14062C40.1302 5.97396 40.8542 5.85938 41.5938 5.79688L42.4688 8.59375L38.9688 9.95312ZM61.6719 2.4375L66.625 16.6094L65.7188 16.2188L67.7031 16.5938L67.5938 18H61.0625L61.1719 16.5625C61.6302 16.3542 62.224 16.1771 62.9531 16.0312L62.6406 16.4531L58.4531 3.5L57.8281 2.51562C58.3802 2.46354 58.9844 2.43229 59.6406 2.42188C60.3073 2.40104 60.9844 2.40625 61.6719 2.4375ZM59.9688 2.53125L55.375 16.6094L55.0156 16.1719L57.0156 16.5938L56.9062 18H51.9375L52.0469 16.625C52.2448 16.5104 52.5052 16.4062 52.8281 16.3125C53.151 16.2083 53.5052 16.1146 53.8906 16.0312L52.9062 16.6094L57.8281 2.51562L59.9688 2.53125ZM55.125 13.8594L55.6406 11.9219H63.1562L63.6875 13.8594H55.125Z" fill="#F4CE14"/>
<path d="M73.6562 18.25C71.5938 18.25 69.9167 17.7812 68.625 16.8438C68.3646 15.1458 68.3021 13.7031 68.4375 12.5156H70.0469L71.8906 16.4375L70.5469 15.3906C71.6719 16.026 72.8281 16.3438 74.0156 16.3438C74.8281 16.3438 75.4531 16.1823 75.8906 15.8594C76.3281 15.5365 76.5469 15.0781 76.5469 14.4844C76.5469 13.9844 76.375 13.5729 76.0312 13.25C75.6875 12.9167 75.1302 12.6302 74.3594 12.3906L72.5469 11.8281C69.8177 10.9844 68.4531 9.43229 68.4531 7.17188C68.4531 5.68229 68.9896 4.49479 70.0625 3.60938C71.1354 2.72396 72.5781 2.28125 74.3906 2.28125C76.0469 2.28125 77.5469 2.625 78.8906 3.3125C79.099 4.72917 79.1615 6.01562 79.0781 7.17188H77.4062L75.875 3.98438L77.5 5.14062C76.2812 4.50521 75.125 4.1875 74.0312 4.1875C72.5625 4.1875 71.8281 4.76562 71.8281 5.92188C71.8281 6.43229 72.0104 6.85938 72.375 7.20312C72.75 7.54688 73.349 7.84896 74.1719 8.10938L75.9844 8.67188C78.651 9.50521 79.9844 11.0208 79.9844 13.2188C79.9844 14.7604 79.4115 15.9844 78.2656 16.8906C77.1302 17.7969 75.5938 18.25 73.6562 18.25ZM82.6562 17.9062V1.84375L86.2812 2.29688V17.9062H82.6562ZM90.0625 17.9062V10.0938C90.0625 8.66667 89.4427 7.95312 88.2031 7.95312C87.2344 7.95312 86.1979 8.39062 85.0938 9.26562L84.8125 8.32812C86.0833 6.55729 87.8021 5.67188 89.9688 5.67188C91.1667 5.67188 92.0833 5.97396 92.7188 6.57812C93.3646 7.17188 93.6875 8.02604 93.6875 9.14062V17.9062H90.0625ZM81.3438 18L81.4531 16.6875C81.7448 16.5417 82.0365 16.4219 82.3281 16.3281C82.6302 16.2344 82.9323 16.151 83.2344 16.0781L82.6562 17.6094V15.1562H86.2812V17.6094L85.7656 16.2188L87.7812 16.6562L87.6719 18H81.3438ZM88.9062 18L89.0156 16.625C89.2344 16.5104 89.4844 16.4115 89.7656 16.3281C90.0469 16.2344 90.3385 16.1562 90.6406 16.0938L90.0625 17.6094V15.1562H93.6875V17.6094L93.1562 16.2031L95.0625 16.6562L94.9531 18H88.9062ZM82.6562 3.9375V1.98438L83.1719 3.15625L81.0625 2.17188L81.1562 1.14062C82.2708 0.744792 83.5312 0.520833 84.9375 0.46875H86.2812V3.15625L82.6562 3.9375ZM102.75 16.3125C102.75 15.4479 102.76 14.5677 102.781 13.6719C102.802 12.7656 102.812 11.9167 102.812 11.125V9.78125C102.812 8.30208 102.167 7.5625 100.875 7.5625C100.052 7.5625 99.2396 7.86458 98.4375 8.46875L96.8438 9.89062C96.8125 8.81771 96.875 7.84375 97.0312 6.96875C98.5833 6.10417 100.302 5.67188 102.188 5.67188C105 5.67188 106.406 6.83854 106.406 9.17188C106.406 9.46354 106.401 9.92188 106.391 10.5469C106.38 11.1615 106.37 11.8281 106.359 12.5469C106.349 13.2552 106.339 13.9219 106.328 14.5469C106.318 15.1615 106.312 15.625 106.312 15.9375L102.75 16.3125ZM96.8438 9.89062L97 8.07812L100.047 7.20312L98.6094 9.89062H96.8438ZM99.625 18.2344C98.5417 18.2344 97.6771 17.9323 97.0312 17.3281C96.3854 16.7135 96.0625 15.8958 96.0625 14.875C96.0625 12.7292 97.6667 11.3229 100.875 10.6562L103.719 10.0625L104 11.7188L101.766 12C101.068 12.0833 100.557 12.2917 100.234 12.625C99.9219 12.9479 99.7656 13.4375 99.7656 14.0938C99.7656 15.375 100.266 16.0156 101.266 16.0156C101.974 16.0156 102.87 15.625 103.953 14.8438L104.234 15.7188C102.911 17.3958 101.375 18.2344 99.625 18.2344ZM103.688 18.0781L102.938 15.8281L106.312 15.0312V17.0469L105.75 16.0156L107.594 16.5625L107.484 17.875C106.547 18.0312 105.281 18.099 103.688 18.0781ZM110.281 17.9062V7.90625L113.906 8.70312V17.9062H110.281ZM108.969 18L109.078 16.6875C109.37 16.5417 109.661 16.4219 109.953 16.3281C110.255 16.2344 110.557 16.151 110.859 16.0781L110.281 17.6094V15.1562H113.906V17.6094L113.391 16.25L116.031 16.6562L115.922 18H108.969ZM112.844 10.4062L112.531 9.78125C113.115 8.36458 113.74 7.34375 114.406 6.71875C115.083 6.09375 115.896 5.78125 116.844 5.78125C116.99 5.78125 117.125 5.79167 117.25 5.8125C117.375 5.82292 117.484 5.84375 117.578 5.875L117.344 8.71875C117.073 8.66667 116.802 8.63021 116.531 8.60938C116.26 8.58854 116.036 8.57812 115.859 8.57812C115.255 8.57812 114.719 8.72396 114.25 9.01562C113.781 9.29688 113.312 9.76042 112.844 10.4062ZM110.281 9.95312V7.95312L110.906 9.01562L108.75 7.82812L108.844 6.76562C109.406 6.51562 110.036 6.30729 110.734 6.14062C111.443 5.97396 112.167 5.85938 112.906 5.79688L113.781 8.59375L110.281 9.95312ZM124.859 18.25C122.755 18.25 121.135 17.724 120 16.6719C118.875 15.6094 118.312 14.099 118.312 12.1406C118.312 10.151 118.87 8.57292 119.984 7.40625C121.109 6.23958 122.62 5.65625 124.516 5.65625C126.234 5.65625 127.552 6.15104 128.469 7.14062C129.396 8.13021 129.859 9.54688 129.859 11.3906C129.859 11.5469 129.854 11.7448 129.844 11.9844C129.833 12.224 129.818 12.4167 129.797 12.5625L126.078 11.8125C126.078 10.3021 125.927 9.21875 125.625 8.5625C125.323 7.89583 124.833 7.5625 124.156 7.5625C122.865 7.5625 122.219 8.69271 122.219 10.9531C122.219 14.1927 123.557 15.8125 126.234 15.8125C127.276 15.8125 128.365 15.599 129.5 15.1719L129.344 17.1719C128.823 17.5156 128.167 17.7812 127.375 17.9688C126.583 18.1562 125.745 18.25 124.859 18.25ZM119.984 12.5625V10.9688H129.547L129.797 12.5625H119.984Z" fill="#495E57"/>
</svg>
