<svg width="139" height="51" viewBox="0 0 139 51" fill="none" xmlns="http://www.w3.org/2000/svg">
<path d="M2.21875 40.7656V25.75H5.96875V40.7656H2.21875ZM4.20312 41V38.9688H12.7969L13.1719 41H4.20312ZM13.1719 41L10.125 39.7031L12.2031 36.0781H13.875C13.8958 36.7865 13.8438 37.5677 13.7188 38.4219C13.6042 39.276 13.4219 40.1354 13.1719 41ZM3.95312 34.125V32H11.0156L10.8594 34.125H3.95312ZM3.29688 27.5625V25.5312H13L12.7031 27.5625H3.29688ZM11.6406 30.1719L10.0781 26.8906L13 25.5312C13.1667 26.2812 13.276 27.0573 13.3281 27.8594C13.3906 28.6615 13.3958 29.4323 13.3438 30.1719H11.6406ZM0.75 41L0.859375 39.625C1.35938 39.4062 2.01042 39.2031 2.8125 39.0156L2.21875 40.6094V38.1562H5.96875V40.6094L5.42188 39.1406L7.5 39.5938L7.39062 41H0.75ZM7.4375 25.5312L7.32812 26.9062C6.82812 27.125 6.17708 27.3281 5.375 27.5156L5.96875 25.9219V28.375H2.21875V25.9219L2.76562 27.3906L0.6875 26.9375L0.796875 25.5312H7.4375ZM21.7188 39.3125C21.7188 38.4479 21.7292 37.5677 21.75 36.6719C21.7708 35.7656 21.7812 34.9167 21.7812 34.125V32.7812C21.7812 31.3021 21.1354 30.5625 19.8438 30.5625C19.0208 30.5625 18.2083 30.8646 17.4062 31.4688L15.8125 32.8906C15.7812 31.8177 15.8438 30.8438 16 29.9688C17.5521 29.1042 19.2708 28.6719 21.1562 28.6719C23.9688 28.6719 25.375 29.8385 25.375 32.1719C25.375 32.4635 25.3698 32.9219 25.3594 33.5469C25.349 34.1615 25.3385 34.8281 25.3281 35.5469C25.3177 36.2552 25.3073 36.9219 25.2969 37.5469C25.2865 38.1615 25.2812 38.625 25.2812 38.9375L21.7188 39.3125ZM15.8125 32.8906L15.9688 31.0781L19.0156 30.2031L17.5781 32.8906H15.8125ZM18.5938 41.2344C17.5104 41.2344 16.6458 40.9323 16 40.3281C15.3542 39.7135 15.0312 38.8958 15.0312 37.875C15.0312 35.7292 16.6354 34.3229 19.8438 33.6562L22.6875 33.0625L22.9688 34.7188L20.7344 35C20.0365 35.0833 19.526 35.2917 19.2031 35.625C18.8906 35.9479 18.7344 36.4375 18.7344 37.0938C18.7344 38.375 19.2344 39.0156 20.2344 39.0156C20.9427 39.0156 21.8385 38.625 22.9219 37.8438L23.2031 38.7188C21.8802 40.3958 20.3438 41.2344 18.5938 41.2344ZM22.6562 41.0781L21.9062 38.8281L25.2812 38.0312V40.0469L24.7188 39.0156L26.5625 39.5625L26.4531 40.875C25.5156 41.0312 24.25 41.099 22.6562 41.0781ZM29.25 40.9062V30.9062L32.875 31.7031V40.9062H29.25ZM27.9375 41L28.0469 39.6875C28.3385 39.5417 28.6302 39.4219 28.9219 39.3281C29.224 39.2344 29.526 39.151 29.8281 39.0781L29.25 40.6094V38.1562H32.875V40.6094L32.3594 39.25L35 39.6562L34.8906 41H27.9375ZM31.8125 33.4062L31.5 32.7812C32.0833 31.3646 32.7083 30.3438 33.375 29.7188C34.0521 29.0938 34.8646 28.7812 35.8125 28.7812C35.9583 28.7812 36.0938 28.7917 36.2188 28.8125C36.3438 28.8229 36.4531 28.8438 36.5469 28.875L36.3125 31.7188C36.0417 31.6667 35.7708 31.6302 35.5 31.6094C35.2292 31.5885 35.0052 31.5781 34.8281 31.5781C34.224 31.5781 33.6875 31.724 33.2188 32.0156C32.75 32.2969 32.2812 32.7604 31.8125 33.4062ZM29.25 32.9531V30.9531L29.875 32.0156L27.7188 30.8281L27.8125 29.7656C28.375 29.5156 29.0052 29.3073 29.7031 29.1406C30.4115 28.974 31.1354 28.8594 31.875 28.7969L32.75 31.5938L29.25 32.9531ZM46.3438 40.9062V33.0938C46.3438 31.6667 45.7292 30.9531 44.5 30.9531C43.5417 30.9531 42.5104 31.3906 41.4062 32.2656L41.0938 31.1719C41.7396 30.3385 42.5104 29.7135 43.4062 29.2969C44.3125 28.8802 45.2604 28.6719 46.25 28.6719C47.4583 28.6719 48.3802 28.974 49.0156 29.5781C49.651 30.1719 49.9688 31.026 49.9688 32.1406V40.9062H46.3438ZM38.9688 40.9062V30.375L42.5938 31.0312V40.9062H38.9688ZM37.6562 41L37.7656 39.6875C38.0573 39.5417 38.349 39.4219 38.6406 39.3281C38.9427 39.2344 39.2448 39.151 39.5469 39.0781L38.9688 40.6094V38.1562H42.5938V40.6094L42.0781 39.2188L44.0938 39.6562L43.9844 41H37.6562ZM45.1875 41L45.2969 39.625C45.5156 39.5104 45.7656 39.4115 46.0469 39.3281C46.3281 39.2344 46.6198 39.1562 46.9219 39.0938L46.3438 40.6094V38.1562H49.9688V40.6094L49.4375 39.2031L51.3438 39.6562L51.2344 41H45.1875ZM38.9688 32.9531V30.9531L39.5938 32.0156L37.4375 30.8281L37.5312 29.7656C38.0938 29.5156 38.724 29.3073 39.4219 29.1406C40.1302 28.974 40.8542 28.8594 41.5938 28.7969L42.4688 31.5938L38.9688 32.9531ZM61.6719 25.4375L66.625 39.6094L65.7188 39.2188L67.7031 39.5938L67.5938 41H61.0625L61.1719 39.5625C61.6302 39.3542 62.224 39.1771 62.9531 39.0312L62.6406 39.4531L58.4531 26.5L57.8281 25.5156C58.3802 25.4635 58.9844 25.4323 59.6406 25.4219C60.3073 25.401 60.9844 25.4062 61.6719 25.4375ZM59.9688 25.5312L55.375 39.6094L55.0156 39.1719L57.0156 39.5938L56.9062 41H51.9375L52.0469 39.625C52.2448 39.5104 52.5052 39.4062 52.8281 39.3125C53.151 39.2083 53.5052 39.1146 53.8906 39.0312L52.9062 39.6094L57.8281 25.5156L59.9688 25.5312ZM55.125 36.8594L55.6406 34.9219H63.1562L63.6875 36.8594H55.125Z" fill="#F4CE14"/>
<path d="M73.6562 41.25C71.5938 41.25 69.9167 40.7812 68.625 39.8438C68.3646 38.1458 68.3021 36.7031 68.4375 35.5156H70.0469L71.8906 39.4375L70.5469 38.3906C71.6719 39.026 72.8281 39.3438 74.0156 39.3438C74.8281 39.3438 75.4531 39.1823 75.8906 38.8594C76.3281 38.5365 76.5469 38.0781 76.5469 37.4844C76.5469 36.9844 76.375 36.5729 76.0312 36.25C75.6875 35.9167 75.1302 35.6302 74.3594 35.3906L72.5469 34.8281C69.8177 33.9844 68.4531 32.4323 68.4531 30.1719C68.4531 28.6823 68.9896 27.4948 70.0625 26.6094C71.1354 25.724 72.5781 25.2812 74.3906 25.2812C76.0469 25.2812 77.5469 25.625 78.8906 26.3125C79.099 27.7292 79.1615 29.0156 79.0781 30.1719H77.4062L75.875 26.9844L77.5 28.1406C76.2812 27.5052 75.125 27.1875 74.0312 27.1875C72.5625 27.1875 71.8281 27.7656 71.8281 28.9219C71.8281 29.4323 72.0104 29.8594 72.375 30.2031C72.75 30.5469 73.349 30.849 74.1719 31.1094L75.9844 31.6719C78.651 32.5052 79.9844 34.0208 79.9844 36.2188C79.9844 37.7604 79.4115 38.9844 78.2656 39.8906C77.1302 40.7969 75.5938 41.25 73.6562 41.25ZM82.6562 40.9062V24.8438L86.2812 25.2969V40.9062H82.6562ZM90.0625 40.9062V33.0938C90.0625 31.6667 89.4427 30.9531 88.2031 30.9531C87.2344 30.9531 86.1979 31.3906 85.0938 32.2656L84.8125 31.3281C86.0833 29.5573 87.8021 28.6719 89.9688 28.6719C91.1667 28.6719 92.0833 28.974 92.7188 29.5781C93.3646 30.1719 93.6875 31.026 93.6875 32.1406V40.9062H90.0625ZM81.3438 41L81.4531 39.6875C81.7448 39.5417 82.0365 39.4219 82.3281 39.3281C82.6302 39.2344 82.9323 39.151 83.2344 39.0781L82.6562 40.6094V38.1562H86.2812V40.6094L85.7656 39.2188L87.7812 39.6562L87.6719 41H81.3438ZM88.9062 41L89.0156 39.625C89.2344 39.5104 89.4844 39.4115 89.7656 39.3281C90.0469 39.2344 90.3385 39.1562 90.6406 39.0938L90.0625 40.6094V38.1562H93.6875V40.6094L93.1562 39.2031L95.0625 39.6562L94.9531 41H88.9062ZM82.6562 26.9375V24.9844L83.1719 26.1562L81.0625 25.1719L81.1562 24.1406C82.2708 23.7448 83.5312 23.5208 84.9375 23.4688H86.2812V26.1562L82.6562 26.9375ZM102.75 39.3125C102.75 38.4479 102.76 37.5677 102.781 36.6719C102.802 35.7656 102.812 34.9167 102.812 34.125V32.7812C102.812 31.3021 102.167 30.5625 100.875 30.5625C100.052 30.5625 99.2396 30.8646 98.4375 31.4688L96.8438 32.8906C96.8125 31.8177 96.875 30.8438 97.0312 29.9688C98.5833 29.1042 100.302 28.6719 102.188 28.6719C105 28.6719 106.406 29.8385 106.406 32.1719C106.406 32.4635 106.401 32.9219 106.391 33.5469C106.38 34.1615 106.37 34.8281 106.359 35.5469C106.349 36.2552 106.339 36.9219 106.328 37.5469C106.318 38.1615 106.312 38.625 106.312 38.9375L102.75 39.3125ZM96.8438 32.8906L97 31.0781L100.047 30.2031L98.6094 32.8906H96.8438ZM99.625 41.2344C98.5417 41.2344 97.6771 40.9323 97.0312 40.3281C96.3854 39.7135 96.0625 38.8958 96.0625 37.875C96.0625 35.7292 97.6667 34.3229 100.875 33.6562L103.719 33.0625L104 34.7188L101.766 35C101.068 35.0833 100.557 35.2917 100.234 35.625C99.9219 35.9479 99.7656 36.4375 99.7656 37.0938C99.7656 38.375 100.266 39.0156 101.266 39.0156C101.974 39.0156 102.87 38.625 103.953 37.8438L104.234 38.7188C102.911 40.3958 101.375 41.2344 99.625 41.2344ZM103.688 41.0781L102.938 38.8281L106.312 38.0312V40.0469L105.75 39.0156L107.594 39.5625L107.484 40.875C106.547 41.0312 105.281 41.099 103.688 41.0781ZM110.281 40.9062V30.9062L113.906 31.7031V40.9062H110.281ZM108.969 41L109.078 39.6875C109.37 39.5417 109.661 39.4219 109.953 39.3281C110.255 39.2344 110.557 39.151 110.859 39.0781L110.281 40.6094V38.1562H113.906V40.6094L113.391 39.25L116.031 39.6562L115.922 41H108.969ZM112.844 33.4062L112.531 32.7812C113.115 31.3646 113.74 30.3438 114.406 29.7188C115.083 29.0938 115.896 28.7812 116.844 28.7812C116.99 28.7812 117.125 28.7917 117.25 28.8125C117.375 28.8229 117.484 28.8438 117.578 28.875L117.344 31.7188C117.073 31.6667 116.802 31.6302 116.531 31.6094C116.26 31.5885 116.036 31.5781 115.859 31.5781C115.255 31.5781 114.719 31.724 114.25 32.0156C113.781 32.2969 113.312 32.7604 112.844 33.4062ZM110.281 32.9531V30.9531L110.906 32.0156L108.75 30.8281L108.844 29.7656C109.406 29.5156 110.036 29.3073 110.734 29.1406C111.443 28.974 112.167 28.8594 112.906 28.7969L113.781 31.5938L110.281 32.9531ZM124.859 41.25C122.755 41.25 121.135 40.724 120 39.6719C118.875 38.6094 118.312 37.099 118.312 35.1406C118.312 33.151 118.87 31.5729 119.984 30.4062C121.109 29.2396 122.62 28.6562 124.516 28.6562C126.234 28.6562 127.552 29.151 128.469 30.1406C129.396 31.1302 129.859 32.5469 129.859 34.3906C129.859 34.5469 129.854 34.7448 129.844 34.9844C129.833 35.224 129.818 35.4167 129.797 35.5625L126.078 34.8125C126.078 33.3021 125.927 32.2188 125.625 31.5625C125.323 30.8958 124.833 30.5625 124.156 30.5625C122.865 30.5625 122.219 31.6927 122.219 33.9531C122.219 37.1927 123.557 38.8125 126.234 38.8125C127.276 38.8125 128.365 38.599 129.5 38.1719L129.344 40.1719C128.823 40.5156 128.167 40.7812 127.375 40.9688C126.583 41.1562 125.745 41.25 124.859 41.25ZM119.984 35.5625V33.9688H129.547L129.797 35.5625H119.984Z" fill="#495E57"/>
<g filter="url(#filter0_d_45_19)">
<path d="M61.3897 19.4096C60.791 21.2523 58.1841 21.2523 57.5854 19.4096L57.1302 18.0084C56.8624 17.1844 56.0945 16.6264 55.228 16.6264H53.7547C51.8173 16.6264 51.0117 14.1472 52.5791 13.0084L53.7711 12.1424C54.4721 11.6331 54.7654 10.7304 54.4976 9.90634L54.0423 8.50512C53.4436 6.6625 55.5526 5.13025 57.12 6.26905L58.312 7.13506C59.013 7.64434 59.9621 7.64434 60.6631 7.13506L61.8551 6.26905C63.4225 5.13025 65.5315 6.6625 64.9328 8.50512L64.4775 9.90634C64.2097 10.7304 64.503 11.6331 65.204 12.1424L66.396 13.0084C67.9634 14.1472 67.1578 16.6264 65.2204 16.6264L63.7471 16.6264C62.8806 16.6264 62.1127 17.1844 61.8449 18.0084L61.3897 19.4096Z" fill="#495E57"/>
</g>
<defs>
<filter id="filter0_d_45_19" x="47.7509" y="5.87799" width="23.4734" height="22.9136" filterUnits="userSpaceOnUse" color-interpolation-filters="sRGB">
<feFlood flood-opacity="0" result="BackgroundImageFix"/>
<feColorMatrix in="SourceAlpha" type="matrix" values="0 0 0 0 0 0 0 0 0 0 0 0 0 0 0 0 0 0 127 0" result="hardAlpha"/>
<feOffset dy="4"/>
<feGaussianBlur stdDeviation="2"/>
<feComposite in2="hardAlpha" operator="out"/>
<feColorMatrix type="matrix" values="0 0 0 0 0 0 0 0 0 0 0 0 0 0 0 0 0 0 0.25 0"/>
<feBlend mode="normal" in2="BackgroundImageFix" result="effect1_dropShadow_45_19"/>
<feBlend mode="normal" in="SourceGraphic" in2="effect1_dropShadow_45_19" result="shape"/>
</filter>
</defs>
</svg>
